<svg xmlns="http://www.w3.org/2000/svg" width="512" height="512" fill="#0d6efd" class="bi bi-map-fill" viewBox="0 0 512 512"><path fill-rule="evenodd" d="M512 16a16 16 0 0 0 -19.136 -15.68L336 31.68 179.136 0.32a16 16 0 0 0 -6.272 0l-160 32A16 16 0 0 0 0 48v448a16 16 0 0 0 19.136 15.68L176 480.32l156.864 31.36a16.064 16.064 0 0 0 6.272 0l160 -32A16 16 0 0 0 512 464V16zM160 450.88V35.52l16 -3.2 16 3.2v415.36l-12.864 -2.56a15.936 15.936 0 0 0 -6.272 0l-12.864 2.56zm160 25.6V61.12l12.864 2.56a16 16 0 0 0 6.272 0l12.864 -2.56v415.36l-16 3.2 -16 -3.2z"/></svg>