<svg xmlns="http://www.w3.org/2000/svg" width="192" height="192" fill="#0d6efd" class="bi bi-map-fill" viewBox="0 0 192 192"><path fill-rule="evenodd" d="M192 6a6 6 0 0 0 -7.176 -5.88L126 11.88 67.176 0.12a6 6 0 0 0 -2.352 0l-60 12A6 6 0 0 0 0 18v168a6 6 0 0 0 7.176 5.88l58.824 -11.76 58.824 11.76a6.024 6.024 0 0 0 2.352 0l60 -12A6 6 0 0 0 192 174V6zM60 169.08V13.32l6 -1.2 6 1.2v155.76l-4.824 -0.96a5.976 5.976 0 0 0 -2.352 0L60 169.08zm60 9.6V22.92l4.824 0.96a6 6 0 0 0 2.352 0L132 22.92v155.76l-6 1.2 -6 -1.2z"/></svg>